<?xml version="1.0" standalone="no"?>
<!DOCTYPE svg PUBLIC "-//W3C//DTD SVG 20010904//EN"
 "http://www.w3.org/TR/2001/REC-SVG-20010904/DTD/svg10.dtd">
<svg version="1.0" xmlns="http://www.w3.org/2000/svg"
 width="315.000000pt" height="200.000000pt" viewBox="0 0 315.000000 200.000000"
 preserveAspectRatio="xMidYMid meet">

<g transform="translate(0.000000,200.000000) scale(0.100000,-0.100000)"
fill="#ffffff" stroke="none">
<path d="M1871 1592 l-33 -68 16 -54 c31 -105 16 -232 -39 -325 -38 -66 -127
-142 -189 -161 l-53 -17 -80 -168 c-45 -93 -78 -171 -74 -173 4 -3 57 -4 118
-3 l110 1 128 269 c70 147 131 264 135 260 4 -4 61 -120 126 -258 65 -137 123
-254 129 -260 11 -9 221 -13 229 -4 3 4 -52 122 -228 489 -41 85 -113 238
-162 340 -48 102 -90 188 -94 193 -3 4 -21 -24 -39 -61z"/>
<path d="M840 1134 c0 -459 1 -486 18 -479 9 3 56 30 104 58 l88 52 0 323 0
322 255 0 256 0 24 -25 c34 -33 34 -87 0 -120 -23 -24 -29 -25 -167 -25 l-143
-1 -62 -104 -62 -105 214 0 c248 0 289 9 363 82 71 68 87 108 87 213 0 81 -3
95 -30 144 -16 29 -48 68 -71 87 -76 63 -87 64 -500 64 l-374 0 0 -486z"/>
<path d="M1382 556 c-11 -15 -24 -36 -27 -47 -4 -10 -9 -19 -13 -19 -4 0 -8
-11 -8 -25 -1 -14 -8 -32 -14 -40 -7 -9 -14 -32 -16 -53 -2 -36 -2 -35 16 14
26 73 38 94 58 94 13 0 14 2 3 9 -11 7 -9 14 9 39 29 39 22 65 -8 28z"/>
<path d="M1813 539 c-6 -6 -9 -18 -6 -27 5 -11 3 -13 -7 -7 -10 6 -12 4 -7 -8
3 -10 2 -17 -3 -17 -5 0 -11 -9 -15 -19 -3 -11 -16 -21 -28 -23 -25 -3 -51
-48 -37 -62 6 -6 15 -5 23 2 8 7 17 9 20 5 4 -3 7 -1 7 6 0 7 16 39 36 71 20
32 34 66 32 75 -2 12 -6 13 -15 4z m-53 -112 c0 -2 -9 -12 -20 -22 -24 -21
-27 -14 -4 9 15 15 24 20 24 13z"/>
<path d="M1430 496 c0 -8 61 -12 66 -4 3 4 -11 8 -30 8 -20 0 -36 -2 -36 -4z"/>
<path d="M1510 428 c-16 -24 -20 -27 -15 -10 4 13 2 22 -4 22 -6 0 -11 -4 -11
-10 0 -12 -65 -40 -92 -40 -15 0 -18 5 -13 21 5 15 4 19 -4 15 -6 -4 -11 -17
-11 -28 0 -18 5 -20 38 -15 20 3 45 8 55 12 13 5 17 2 17 -14 0 -29 13 -26 33
8 12 21 22 28 37 24 11 -3 20 -12 20 -21 0 -13 3 -12 15 4 18 24 21 54 3 36
-7 -7 -20 -12 -31 -12 -14 0 -17 5 -12 20 9 29 0 24 -25 -12z"/>
<path d="M1903 443 c-7 -2 -13 -10 -13 -17 0 -7 -11 -19 -25 -26 -14 -7 -23
-15 -21 -17 2 -3 14 1 26 7 35 19 45 -8 14 -38 -29 -29 -31 -52 -5 -52 23 0
42 21 44 51 1 13 14 30 32 40 29 18 30 18 37 -1 6 -16 12 -18 40 -9 18 5 41 6
51 3 12 -4 28 3 43 17 35 33 32 3 -6 -64 -29 -52 -39 -97 -21 -97 12 0 22 30
14 42 -3 6 -2 8 4 5 5 -3 17 18 26 47 12 38 24 56 42 64 35 16 35 16 35 -14
l0 -26 18 22 c16 20 21 21 39 9 18 -11 26 -11 47 1 14 7 24 16 21 19 -3 2 -11
-1 -17 -7 -17 -17 -48 -15 -55 4 -3 8 -12 13 -20 9 -11 -3 -13 -1 -9 10 3 8 1
15 -4 15 -6 0 -10 -4 -10 -9 0 -5 -8 -11 -17 -14 -10 -2 -26 -8 -35 -12 -13
-5 -15 -2 -11 14 7 26 6 26 -69 -4 -76 -31 -98 -32 -91 -5 5 19 3 20 -23 10
-16 -6 -34 -16 -41 -22 -7 -5 -20 -8 -28 -4 -17 6 -20 32 -5 41 6 4 7 -1 3
-11 -4 -12 -3 -15 5 -10 13 8 17 36 5 35 -5 0 -14 -3 -20 -6z m7 -102 c-5 -11
-15 -23 -20 -26 -14 -9 -12 19 2 33 19 19 30 14 18 -7z"/>
<path d="M898 415 c-16 -36 0 -51 41 -37 19 7 31 7 31 1 0 -18 17 -9 28 16 10
21 17 24 39 20 l28 -5 -25 11 c-39 19 -50 19 -60 0 -9 -19 -67 -48 -76 -39 -9
9 8 38 22 38 8 0 14 5 14 10 0 20 -31 9 -42 -15z"/>
<path d="M1093 414 c-3 -8 0 -21 7 -27 10 -9 11 -9 6 1 -4 7 -1 15 8 18 20 8
21 24 1 24 -9 0 -18 -7 -22 -16z"/>
<path d="M1163 405 l-32 -23 32 2 c18 2 31 7 30 12 -3 17 36 13 40 -4 3 -10 5
-5 6 11 1 22 -3 27 -21 26 -13 0 -37 -11 -55 -24z"/>
<path d="M1804 415 c-11 -27 1 -33 19 -9 16 21 16 24 2 24 -9 0 -18 -7 -21
-15z"/>
<path d="M1614 395 c-10 -8 -14 -15 -8 -15 5 0 19 7 30 15 10 8 14 15 8 15 -5
0 -19 -7 -30 -15z"/>
<path d="M1741 354 c0 -11 3 -14 6 -6 3 7 2 16 -1 19 -3 4 -6 -2 -5 -13z"/>
</g>
</svg>
